<svg xmlns="http://www.w3.org/2000/svg" viewBox="0 0 512 512">
  <defs>
    <linearGradient id="grad" x1="0%" y1="0%" x2="100%" y2="100%">
      <stop offset="0%" style="stop-color:#6366f1;stop-opacity:1" />
      <stop offset="100%" style="stop-color:#06b6d4;stop-opacity:1" />
    </linearGradient>
    <filter id="glow" x="-20%" y="-20%" width="140%" height="140%">
      <feGaussianBlur stdDeviation="15" result="blur" />
      <feComposite in="SourceGraphic" in2="blur" operator="over" />
    </filter>
  </defs>
  
  <rect width="512" height="512" rx="120" fill="url(#grad)" />
  
  <g transform="translate(106, 126) scale(0.6)" filter="url(#glow)">
    <!-- Cloud shape -->
    <path d="M400 224h-24c-5.8 0-11.2-2.8-14.5-7.5C347.3 196.3 323.8 184 298.3 184c-35.8 0-67.4 20.3-83.6 53.6-2.5 5.1-7.7 8.4-13.4 8.4h-1.6c-54.8 0-99.7 44.9-99.7 99.7s44.9 99.7 99.7 99.7h200.4c49.4 0 89.6-40.2 89.6-89.6S449.4 224 400 224z" fill="white" />
    <!-- Lock shape cutout -->
    <path d="M298.3 260c-15.5 0-28 12.5-28 28v16h-8c-4.4 0-8 3.6-8 8v48c0 4.4 3.6 8 8 8h56c4.4 0 8-3.6 8-8v-48c0-4.4-3.6-8-8-8h-8v-16c0-15.5-12.5-28-28-28zm0 16c6.6 0 12 5.4 12 12v16h-24v-16c0-6.6 5.4-12 12-12z" fill="url(#grad)" />
  </g>
</svg>
